<?xml version="1.0" standalone="no"?>
<!DOCTYPE svg PUBLIC "-//W3C//DTD SVG 20010904//EN"
 "http://www.w3.org/TR/2001/REC-SVG-20010904/DTD/svg10.dtd">
<svg version="1.0" xmlns="http://www.w3.org/2000/svg"
 width="510.000000pt" height="510.000000pt" viewBox="0 0 510.000000 510.000000"
 preserveAspectRatio="xMidYMid meet">
<metadata>
Created by potrace 1.11, written by Peter Selinger 2001-2013
</metadata>
<g transform="translate(0.000000,510.000000) scale(0.100000,-0.100000)"
fill="#000000" stroke="none">
<path d="M2433 5079 c-17 -5 -51 -31 -75 -58 -45 -50 -65 -79 -193 -276 -129
-200 -269 -385 -444 -590 -135 -156 -199 -224 -446 -470 -238 -237 -280 -277
-425 -405 -47 -41 -87 -77 -90 -81 -4 -4 -221 -185 -260 -216 -8 -7 -94 -73
-190 -148 -265 -204 -301 -245 -305 -335 -3 -83 19 -107 241 -253 369 -242
686 -512 1168 -993 159 -158 387 -397 462 -484 22 -25 41 -47 44 -50 3 -3 30
-34 60 -70 30 -36 57 -67 61 -70 19 -17 144 -180 265 -344 77 -105 155 -201
174 -213 59 -40 146 -23 203 40 16 17 93 122 171 232 338 473 663 853 1141
1330 312 312 517 488 794 683 242 170 271 200 273 277 1 70 -35 113 -177 212
-268 186 -346 243 -485 352 -80 63 -147 117 -150 120 -3 3 -36 33 -75 66 -38
33 -72 62 -75 65 -3 3 -25 23 -50 44 -128 112 -288 264 -495 471 -367 366
-547 573 -812 935 -67 91 -134 177 -150 192 -48 45 -94 56 -160 37z m206 -677
c65 -31 238 -145 296 -194 11 -10 49 -41 85 -69 67 -53 223 -187 320 -274 77
-70 526 -518 586 -586 144 -163 173 -197 247 -291 163 -208 239 -346 240 -432
1 -137 -220 -463 -587 -866 -64 -70 -475 -480 -541 -540 -62 -56 -195 -172
-259 -225 -82 -68 -269 -199 -337 -235 -85 -46 -168 -49 -244 -9 -144 75 -261
157 -475 334 -207 170 -322 277 -610 565 -480 480 -731 812 -714 948 7 53 57
150 143 279 111 165 240 324 476 588 97 108 523 537 620 624 33 29 74 66 90
80 130 117 325 260 416 307 105 53 133 53 248 -4z"/>
<path d="M2405 4286 c-63 -34 -176 -111 -241 -165 -17 -14 -42 -35 -56 -46
-50 -39 -164 -142 -267 -240 -593 -570 -1048 -1138 -1054 -1317 -4 -137 284
-503 773 -984 150 -147 234 -225 386 -355 140 -120 256 -211 364 -283 196
-131 255 -141 391 -62 124 72 194 126 438 331 202 171 608 593 809 839 223
276 337 475 328 573 -4 42 -54 146 -107 225 -38 57 -156 216 -169 228 -3 3
-32 37 -64 75 -166 199 -533 571 -751 760 -38 33 -87 76 -110 96 -146 129
-361 284 -460 331 -81 38 -127 37 -210 -6z m249 -357 c164 -44 294 -178 340
-351 21 -78 14 -228 -13 -300 -58 -150 -178 -248 -323 -262 -37 -4 -62 -21
-53 -36 2 -3 6 -55 10 -115 3 -61 8 -137 10 -170 3 -33 7 -111 10 -173 3 -62
6 -116 6 -120 4 -24 -9 -27 -118 -27 -65 0 -124 4 -131 8 -6 5 -10 18 -7 30 2
12 7 85 10 162 3 77 8 169 10 205 2 36 7 120 10 187 l6 123 -68 -1 c-148 -1
-156 -1 -148 19 9 21 167 481 238 690 l52 153 60 -6 c33 -3 77 -10 99 -16z
m-565 -1025 c-1 -305 2 -558 5 -561 7 -8 503 -6 621 2 321 21 530 79 600 164
63 77 26 146 -115 217 l-54 27 -82 -20 -82 -20 -42 114 c-24 63 -41 115 -39
117 2 1 114 -25 249 -59 l245 -62 -42 -13 c-24 -7 -43 -16 -43 -20 0 -3 15
-13 33 -22 17 -9 53 -35 80 -58 233 -207 112 -539 -268 -733 -74 -38 -196 -82
-255 -92 -19 -3 -51 -10 -70 -15 -69 -17 -150 -21 -444 -20 l-299 0 -53 55
c-29 30 -49 56 -46 58 4 2 113 3 242 2 129 -1 239 1 244 3 5 3 -23 20 -63 39
l-72 33 -219 0 -218 0 -53 53 -52 52 348 5 347 5 -78 37 -79 37 -305 -2 -305
-2 -59 56 -60 57 0 298 -1 298 40 44 c77 85 72 104 71 -288 l-1 -350 38 0 37
0 0 393 0 393 55 54 c30 30 55 50 56 45 0 -6 1 -207 1 -447 l0 -438 37 0 37 0
-1 473 c0 259 2 481 6 493 7 19 100 154 106 154 2 0 2 -250 2 -556z m587
-1097 c4 -4 8 -24 10 -44 1 -21 5 -83 8 -138 9 -142 17 -243 21 -292 l4 -43
-185 0 -186 0 7 109 c3 61 8 120 10 133 2 13 6 75 10 138 3 63 8 122 10 130 4
13 28 15 145 14 77 0 143 -3 146 -7z"/>
</g>
</svg>
